<?xml version="1.0" encoding="UTF-8" standalone="no"?>
<svg width="196px" height="196px" viewBox="0 0 196 196" version="1.1" xmlns="http://www.w3.org/2000/svg" xmlns:xlink="http://www.w3.org/1999/xlink" xmlns:sketch="http://www.bohemiancoding.com/sketch/ns">
    <!-- Generator: Sketch 3.3.3 (12081) - http://www.bohemiancoding.com/sketch -->
    <title>facebook</title>
    <desc>Created with Sketch.</desc>
    <defs></defs>
    <g id="Assets" stroke="none" stroke-width="1" fill="none" fill-rule="evenodd" sketch:type="MSPage">
        <path d="M98.0408163,0 C43.9395007,0 0.0816326531,43.8676055 0.0816326531,97.9631619 C0.0816326531,152.066675 43.9395007,195.918367 98.0408163,195.918367 C152.142132,195.918367 196,152.066675 196,97.9631619 C196,43.8676055 152.138154,0 98.0408163,0 L98.0408163,0 Z M123.965689,97.5534073 L107.003336,97.5534073 L107.003336,158.049887 L81.8621361,158.049887 L81.8621361,97.5534073 L69.9041541,97.5534073 L69.9041541,76.1944544 L81.8621361,76.1944544 L81.8621361,62.3542984 C81.8621361,52.4485818 86.5641769,36.9853204 107.23804,36.9853204 L125.855257,37.056928 L125.855257,57.8032383 L112.337885,57.8032383 C110.130074,57.8032383 107.007314,58.9051995 107.007314,63.6153877 L107.007314,76.1984326 L126.1735,76.1984326 L123.965689,97.5534073 L123.965689,97.5534073 Z" id="facebook" fill="#FFFFFF" sketch:type="MSShapeGroup"></path>
    </g>
</svg>