<?xml version="1.0" encoding="UTF-8" standalone="no"?>
<svg width="674px" height="239px" viewBox="0 0 674 239" version="1.1" xmlns="http://www.w3.org/2000/svg" xmlns:xlink="http://www.w3.org/1999/xlink" xmlns:sketch="http://www.bohemiancoding.com/sketch/ns">
    <!-- Generator: Sketch 3.3.3 (12081) - http://www.bohemiancoding.com/sketch -->
    <title>Muse Wide Logo</title>
    <desc>Created with Sketch.</desc>
    <defs></defs>
    <g id="Assets" stroke="none" stroke-width="1" fill="none" fill-rule="evenodd" sketch:type="MSPage">
        <g id="Muse-Wide-Logo" sketch:type="MSLayerGroup" fill="#89CED4">
            <path d="M613.334,178.774 C607.434,168.331 612.865,153.539 625.499,151.843 C642.289,149.588 640.702,163.392 640.613,163.075 C639.104,157.842 634.927,152.724 628.846,152.566 C623.784,152.431 619.113,155.732 616.169,159.508 C609.139,168.603 615.479,180.039 623.749,186.008 C633.03,192.758 643.972,189.419 651.137,181.62 C658.719,173.33 659.211,161.495 655.262,151.75 C651.509,142.453 642.948,136.241 633.435,133.303 C632.37,132.939 631.313,132.664 630.218,132.454 C627.432,132.304 625.849,131.833 625.849,131.833 C616.656,131.015 607.017,133.367 598.451,136.245 C598.122,136.362 597.759,136.491 597.43,136.608 C599.973,136.102 603.427,135.588 607.475,135.266 C611.958,134.888 614.036,134.823 615.292,134.845 C616.558,134.9 616.924,135.153 617.849,135.426 L617.93,135.457 L617.944,135.498 C619.178,135.927 620.332,136.847 620.729,137.967 C621.036,138.83 620.886,139.83 619.925,140.676 C619.656,140.928 619.317,141.117 618.964,141.243 C616.576,142.055 613.242,140.371 612.966,140.226 C612.966,140.226 612.315,139.846 611.979,139.51 L611.955,139.445 C611.649,139.09 611.583,139.004 611.359,138.507 C611.131,137.964 611.251,138.064 610.604,137.394 C610.11,136.84 607.984,136.571 605.043,136.56 C603.58,136.502 600.495,136.9 597.74,137.313 C596.16,137.53 594.734,137.768 593.757,137.925 C587.271,140.37 580.797,143.459 574.667,147.082 C577.156,146.318 581.239,145.184 586.445,144.262 C590.755,143.5 592.833,143.196 594.092,143.158 C595.322,143.08 595.724,143.299 596.649,143.51 L596.792,143.542 C598.158,143.875 599.505,144.799 599.966,145.991 C600.224,146.716 600.055,147.628 599.341,148.456 C599.004,148.827 598.616,149.086 598.18,149.241 C595.925,149.989 592.431,148.665 592.431,148.665 C592.425,148.651 591.72,148.307 591.306,147.995 C590.985,147.629 590.912,147.595 590.639,147.093 C590.334,146.601 590.457,146.679 589.766,146.083 C589.194,145.591 587.08,145.513 584.159,145.768 C582.719,145.8 579.698,146.522 577.021,147.124 C575.163,147.569 573.545,148.01 572.705,148.21 C568.567,150.819 564.604,153.616 560.909,156.725 C561.558,156.459 562.2,156.173 563.01,155.886 C564.811,155.247 567.028,154.555 569.629,153.946 C573.207,153.144 574.917,152.789 576.007,152.752 C577.033,152.675 577.464,152.903 578.271,153.147 L578.399,153.138 C579.669,153.573 581.052,154.656 581.559,156.084 C581.826,156.84 581.82,157.705 581.362,158.541 C581.102,159.03 580.649,159.347 580.18,159.513 C579.2,159.86 578.052,159.666 577.082,159.433 C576.615,159.339 576.202,159.181 575.901,159.047 L575.53,158.881 L575.396,158.809 L575.361,158.784 C575.337,158.772 574.779,158.489 574.43,158.145 C574.055,157.834 573.88,157.607 573.519,157.137 C573.126,156.605 573.304,156.794 572.678,155.908 C572.413,155.575 571.851,155.376 570.991,155.357 C570.169,155.337 569.1,155.394 567.849,155.56 C566.094,155.714 561.563,157.249 559.33,157.994 C554.149,162.531 549.528,167.495 545.807,172.966 C545.765,172.98 546.98,171.805 549.964,166.147 C551.769,164.814 553.657,160.871 556.27,158.563 C556.638,157.736 557.213,156.516 557.802,155.237 C558.913,152.789 560.123,150.047 560.522,148.67 C561.238,146.088 561.73,144.091 561.442,143.281 L561.34,143.065 C560.777,142.246 560.9,142.465 560.542,141.992 C560.213,141.509 560.068,141.271 559.902,140.802 L559.775,140.571 C559.663,140.255 559.576,139.843 559.567,139.687 C559.44,139.325 559.34,138.064 559.472,136.605 C559.631,135.191 559.995,133.588 561.159,132.944 L561.559,132.781 C562.278,132.513 562.981,132.669 563.524,133.114 C564.042,133.564 564.45,134.177 564.727,134.953 C564.942,135.56 565.071,136.262 565.022,136.902 L565.043,137.026 C565.062,137.991 565.177,138.454 564.855,139.646 C564.576,140.851 563.891,142.808 562.324,146.781 C560.452,151.647 558.669,155.28 557.495,157.481 C560.874,154.532 564.496,151.818 568.338,149.328 C568.894,148.459 569.692,147.262 570.496,145.938 C572.02,143.441 573.72,140.618 574.303,139.151 C574.94,137.736 575.428,136.51 575.755,135.507 C576.082,134.465 576.215,133.721 576.061,133.284 L575.983,133.205 C575.53,132.199 575.61,132.424 575.289,131.89 C575.09,131.53 574.988,131.313 574.902,131.07 C574.842,130.901 574.785,130.738 574.734,130.529 L574.728,130.508 C574.599,130.073 574.559,129.419 574.546,129.287 C574.494,129.14 574.481,129.072 574.494,128.837 C574.479,128.186 574.596,126.726 574.994,125.406 C575.354,124.021 575.987,122.694 577.159,122.218 L577.29,122.172 C578.077,121.892 578.814,121.977 579.359,122.397 C579.906,122.756 580.278,123.368 580.532,124.08 C580.856,124.998 580.963,126.039 580.859,126.965 L580.871,126.998 L580.834,127.093 C580.706,128.158 580.736,128.679 580.251,129.951 C579.755,131.184 578.763,133.228 576.524,137.369 C573.81,142.433 571.286,146.208 569.694,148.451 C573.408,146.135 577.216,143.983 581.144,142.1 C581.771,141.335 582.753,140.016 583.822,138.559 C585.507,136.246 587.392,133.634 588.042,132.333 C588.709,131.031 589.24,129.857 589.559,128.928 C589.883,127.986 589.955,127.336 589.835,126.996 L589.818,126.953 C589.504,126.104 589.517,126.242 589.165,125.82 C588.784,125.39 588.709,125.287 588.489,124.893 L588.478,124.864 L588.446,124.775 C588.288,124.33 588.223,123.576 588.223,123.576 C588.201,123.412 588.198,122.114 588.538,120.703 C588.886,119.319 589.602,117.756 591.068,117.187 L591.143,117.16 C592.113,116.816 592.935,116.874 593.583,117.279 C594.225,117.665 594.68,118.272 594.929,118.973 C595.185,119.697 595.244,120.471 595.156,121.235 L595.135,121.242 L595.132,121.337 C594.995,122.24 595.04,122.74 594.517,123.861 C593.957,124.995 592.881,126.862 590.395,130.707 C587.132,135.813 584.076,139.582 582.354,141.525 C585.563,140.015 588.76,138.653 592.027,137.445 C592.956,136.817 594.379,135.892 595.896,134.793 C598.548,132.965 601.497,130.861 602.704,129.726 C603.902,128.545 604.889,127.5 605.56,126.624 C606.267,125.773 606.591,125.058 606.585,124.641 C606.558,124.025 606.545,123.85 606.484,123.68 C606.454,123.596 606.382,123.431 606.26,123.186 C606.187,122.981 606.151,122.878 606.108,122.757 C606.005,122.468 605.985,122.311 605.931,121.948 C605.918,121.372 606.13,120.52 606.13,120.52 C606.161,120.338 606.576,119.234 607.266,118.009 C608.002,116.8 609.058,115.45 610.486,114.943 C610.817,114.826 611.167,114.762 611.534,114.75 C613.181,114.683 614.257,115.529 614.663,116.675 C615.063,117.834 614.881,119.249 614.263,120.445 L614.229,120.551 C613.709,121.488 613.605,122.005 612.618,123.014 C611.602,124.037 609.751,125.584 605.771,128.769 C601.366,132.249 597.546,134.804 594.855,136.382 C597.559,135.484 600.307,134.607 603.03,133.866 C603.436,133.75 603.893,133.658 604.32,133.543 L604.309,133.511 C604.309,133.511 606.029,133.021 608.301,132.322 C610.575,131.661 613.425,130.803 615.654,130.012 C616.89,129.573 617.94,129.154 618.587,128.819 C620.16,128.043 621.495,127.344 622.466,126.697 C623.412,126.013 623.958,125.462 624.103,125.05 C624.408,123.993 624.313,124.196 624.247,123.464 C624.22,122.849 624.236,122.723 624.354,122.178 L624.338,122.135 C624.479,121.618 625.008,120.84 624.992,120.798 C625.148,120.565 627.214,117.897 629.762,116.994 C630.518,116.726 631.323,116.597 632.168,116.815 C633.396,117.196 634.123,117.897 634.421,118.737 C634.942,120.208 633.005,123.331 633.005,123.331 C633.005,123.331 631.796,124.623 630.506,125.287 C629.199,125.963 626.896,126.97 621.895,128.88 C621.054,129.179 620.212,129.477 619.424,129.757 C616.835,130.675 614.533,131.396 612.522,131.977 C616.943,131.416 621.429,131.313 625.867,131.754 L625.899,131.647 C625.899,131.647 628.438,131.73 631.408,131.72 C634.313,131.72 637.709,131.656 639.258,131.393 C641.081,131.119 642.612,130.804 643.646,130.437 C644.348,130.188 644.843,129.882 645.008,129.606 C645.585,128.802 645.467,128.941 645.66,128.332 C645.808,127.74 646.139,127.25 646.139,127.25 C646.456,126.789 647.071,126.224 647.071,126.224 C647.233,126.105 648.564,125.226 650.206,124.644 C651.582,124.156 653.141,123.889 654.356,124.708 C654.972,125.125 655.353,125.625 655.532,126.136 C656.103,127.843 654.695,129.626 653.051,130.534 L653.019,130.545 L652.953,130.568 C652.308,130.867 651.961,131.111 651.384,131.316 C650.224,131.727 648.341,131.929 642.016,132.336 C637.383,132.66 633.48,132.592 630.678,132.461 C635.786,133.441 640.619,135.228 644.946,137.953 C645.185,138.059 647.113,138.926 649.388,139.821 C651.754,140.782 654.515,141.865 655.793,142.181 C658.165,142.717 660.001,142.953 660.723,142.687 L660.909,142.574 C661.596,142.149 661.438,142.205 661.765,141.742 C662.013,141.293 662.449,140.96 662.449,140.96 L663.517,140.46 C663.667,140.406 664.792,140.164 666.14,140.14 C667.493,140.164 669.026,140.437 669.837,141.6 C670.038,141.866 670.176,142.117 670.271,142.384 C670.561,143.205 670.389,143.937 669.989,144.537 C669.544,145.138 668.886,145.513 668.162,145.771 C667.829,145.888 667.508,145.991 667.159,146.031 L667.079,146.034 C666.188,146.089 665.771,146.237 664.688,146.02 C663.52,145.811 661.657,145.224 657.744,143.901 C653.356,142.42 649.923,140.929 647.663,139.832 C649.306,141.111 650.868,142.473 652.273,144.064 C654.464,146.518 656.152,149.193 657.373,152.153 C657.852,152.56 658.473,153.19 659.116,153.828 C660.546,155.142 662.226,156.634 663.074,157.198 C663.938,157.816 664.748,158.294 665.378,158.621 C665.983,158.91 666.491,159.055 666.772,159.027 C667.144,159.002 667.275,158.97 667.373,158.935 C667.459,158.907 667.56,158.855 667.727,158.75 C667.947,158.661 668.042,158.627 668.129,158.595 C668.255,158.549 668.396,158.501 668.568,158.452 L668.6,158.44 C668.953,158.388 669.576,158.452 669.576,158.452 C669.687,158.463 670.598,158.595 671.547,158.964 C672.521,159.353 673.514,159.878 673.877,160.837 L673.954,161.123 C674.104,162.184 673.498,162.918 672.665,163.201 C671.864,163.484 670.95,163.475 670.166,163.262 L670.091,163.216 C669.399,163.029 669.048,162.946 668.253,162.497 C667.511,161.996 666.313,161.062 663.88,159.07 C661.238,156.866 659.254,154.953 657.952,153.554 C660.614,160.887 660.353,169.213 656.88,176.468 C652.403,185.866 641.49,192.17 630.979,190.572 C623.233,189.361 617.183,185.531 613.334,178.774" id="Fill-1" sketch:type="MSShapeGroup"></path>
            <path d="M441.853,162.925 C442.63,162.149 443.144,161.763 443.404,161.763 L443.791,161.763 C444.047,162.283 444.179,162.799 444.179,163.312 C444.179,163.834 443.92,164.609 443.404,165.638 C442.109,167.709 440.692,169.646 439.144,171.45 C437.592,173.261 436.041,175.197 434.492,177.264 C431.392,180.624 427.772,183.657 423.643,186.368 C419.507,189.082 415.117,190.565 410.47,190.825 C407.108,190.825 404.91,190.05 403.881,188.5 C402.584,187.21 401.812,185.145 401.555,182.301 C401.297,179.46 402.194,175.458 404.268,170.288 C402.458,172.097 400.26,174.163 397.679,176.489 C395.095,178.811 392.383,181.009 389.544,183.076 C386.697,185.145 383.857,186.89 381.019,188.306 C378.172,189.729 375.72,190.437 373.655,190.437 C369.782,190.437 368.209,189.758 366.667,187.508 L366.292,186.951 C363.192,182.56 365.649,172.226 373.655,155.951 C378.306,146.65 382.048,139.227 384.892,133.67 C387.731,128.119 389.931,123.788 391.479,120.689 C393.03,117.588 394.06,115.525 394.581,114.489 C395.095,113.459 395.231,112.723 395.584,112.341 C396.584,111.258 396.531,111.927 396.792,113.216 C397.045,114.513 397.033,115.979 397.291,118.17 C397.547,120.368 397.614,122.499 397.486,124.564 C397.354,126.635 397.159,127.924 396.907,128.438 C393.546,134.124 390.318,139.808 387.218,145.487 C384.371,150.398 381.6,155.503 378.888,160.795 C376.175,166.093 373.909,170.808 372.104,174.938 C371.852,175.458 371.464,176.428 370.943,177.845 C370.429,179.265 370.107,180.69 369.976,182.107 C369.847,183.53 369.847,184.819 369.976,185.981 C370.107,187.144 370.817,187.858 372.104,188.111 C374.172,188.633 378.694,186.951 385.666,183.076 C392.643,179.2 400.006,172.097 407.754,161.763 C408.271,161.25 408.59,160.735 408.725,160.214 C408.851,159.698 409.171,159.05 409.692,158.275 L411.241,155.176 L421.316,134.638 C422.607,132.058 423.836,129.541 424.999,127.082 C426.16,124.63 427.255,122.372 428.29,120.301 L432.167,112.551 C433.197,110.486 433.911,110.808 434.3,113.519 C434.686,116.233 434.747,119.272 434.492,122.626 C434.492,124.437 434.425,125.859 434.3,126.889 C434.165,127.924 433.972,128.827 433.718,129.6 C432.167,131.927 430.357,134.9 428.29,138.513 C426.221,142.134 424.091,146.009 421.897,150.138 C419.7,154.273 417.502,158.47 415.311,162.731 C413.112,166.994 411.241,170.808 409.692,174.163 C409.171,175.197 408.59,176.428 407.947,177.845 C407.301,179.265 406.786,180.69 406.398,182.107 C406.009,183.53 405.944,184.819 406.205,185.981 C406.459,187.144 407.368,187.858 408.915,188.111 C409.692,188.111 411.048,187.92 412.985,187.532 C414.924,187.144 417.309,186.115 420.155,184.43 C422.994,182.756 426.16,180.302 429.647,177.068 C433.134,173.844 436.944,169.387 441.078,163.701 L441.853,162.925" id="Fill-4" sketch:type="MSShapeGroup"></path>
            <path d="M466.258,119.913 C466.258,119.659 466.19,119.4 466.064,119.139 C465.933,118.885 464.458,113.091 464,111.507 C463.613,110.171 464.06,108.035 465.096,105.189 C466.123,102.349 468.449,101.447 472.069,102.477 C474.909,104.286 475.813,106.546 474.782,109.258 C473.747,111.97 472.696,114.437 471.295,116.425 C470.708,117.258 470.624,117.837 470.624,118.091 C470.879,119.641 471.423,120.822 472.457,122.626 C472.973,123.923 473.425,125.084 473.814,126.113 C474.202,127.149 474.65,128.311 475.17,129.6 C475.686,130.896 476.141,132.187 476.526,133.476 C476.912,134.771 477.361,136.062 477.882,137.351 C479.686,142.001 481.498,147.171 483.308,152.85 C485.111,158.536 486.406,163.834 487.184,168.738 C488.211,175.197 486.729,180.362 482.724,184.237 C478.718,188.111 474.396,190.184 469.748,190.437 C464.32,190.691 459.924,189.275 456.569,186.174 C453.21,183.076 451.533,178.946 451.533,173.775 L451.533,171.45 C451.786,170.675 452.563,171.195 453.859,172.999 C455.147,174.811 455.923,176.36 456.186,177.649 C456.186,179.2 456.312,180.236 456.569,180.752 C457.86,183.85 460.833,186.048 465.483,187.336 C469.097,187.083 472.39,185.4 475.363,182.301 C478.332,179.2 479.56,175.458 479.046,171.063 C479.046,167.187 478.269,162.089 476.72,155.757 C475.17,149.429 473.621,143.683 472.069,138.513 C471.809,137.484 471.549,136.577 471.295,135.8 C471.034,135.026 470.774,134.252 470.52,133.476 C470,131.412 469.484,129.668 468.971,128.244 C468.449,126.83 467.936,125.212 467.419,123.402 C465.609,127.021 463.481,131.024 461.026,135.413 C458.567,139.808 456.115,144.199 453.663,148.588 C451.205,152.984 448.754,157.113 446.303,160.987 C443.843,164.863 441.593,168.096 439.52,170.675 L437.195,168.738 C439.267,165.899 441.651,162.409 444.363,158.275 C447.076,154.147 449.79,149.816 452.502,145.296 C455.215,140.777 457.793,136.322 460.252,131.927 C462.704,127.537 464.706,123.534 466.258,119.913" id="Fill-6" sketch:type="MSShapeGroup"></path>
            <path d="M549.166,146.471 C544.771,151.12 539.086,152.44 530.321,151.956 C527.917,151.823 523.805,150.491 522.001,149.971 C520.188,149.456 518.135,148.187 516.584,146.637 L513.584,143.137 C513.323,142.364 518.136,141.596 520.334,141.721 C522.525,141.856 524.403,141.923 526,142.971 C527.084,143.682 527.513,146.418 529.582,146.804 C531.646,147.192 536.037,146.804 537.334,146.804 C539.397,146.292 542.168,145.221 544.417,143.387 C546.442,141.736 548.167,138.054 549.249,135.554 C549.904,134.04 551.087,130.305 551.083,127.804 C551.077,123.798 551.004,122.311 550.751,120.887 C550.49,119.471 548.985,117.141 547.824,116.233 C546.664,115.331 544.784,114.877 542.206,114.877 C537.808,115.137 532.579,117.656 526.511,122.432 C520.44,127.215 514.947,133.222 510.043,140.451 C506.942,145.361 504.554,150.592 502.873,156.144 C501.192,161.702 500.356,166.672 500.356,171.063 C500.356,178.558 502.421,183.595 506.556,186.174 C509.395,187.985 512.621,188.694 516.245,188.306 C519.858,187.92 523.605,186.629 527.479,184.43 C531.356,182.24 535.291,179.334 539.299,175.713 C543.303,172.097 547.181,169.826 550.979,164.903 C552.666,162.716 555.916,160.262 555.916,160.262 C555.916,160.262 553.57,163.185 552.279,165.251 C548.66,170.936 544.396,175.845 539.494,179.975 C534.581,184.111 529.673,187.21 524.769,189.275 C519.858,191.34 515.207,192.5 510.82,192.763 C506.425,193.015 503.476,192.448 500.375,190.383 L499.968,190.05 C497.123,188.246 494.999,185.726 493.575,182.493 C492.157,179.265 491.444,175.458 491.444,171.063 C491.444,160.214 495.063,149.109 502.292,137.739 C508.494,127.924 515.79,120.629 524.187,115.845 C532.579,111.068 540.006,109.713 546.468,111.776 C548.271,112.297 550.268,113.346 551.499,114.746 C552.89,116.327 554.917,118.304 556.012,121.931 C556.573,123.79 556.952,129.309 556.749,131.304 C555.916,139.471 550.715,145.44 549.166,146.471" id="Fill-8" sketch:type="MSShapeGroup"></path>
            <path d="M41.773,184.88 C47.943,186.362 54.026,188.266 59.991,190.476 C58.324,190.056 50.595,188.187 39.712,187.339 C33.619,186.892 30.761,186.779 29.094,186.869 C27.395,186.961 26.934,187.313 25.738,187.741 L25.616,187.782 C24.845,188.08 24.146,188.532 23.572,189.092 C22.829,189.81 22.315,190.697 22.181,191.65 C22.1,192.606 22.435,193.599 23.344,194.53 C23.456,194.65 23.611,194.807 23.735,194.921 C25.323,196.264 27.573,196.104 29.435,195.643 C31.282,195.129 32.771,194.321 32.949,194.198 C32.949,194.198 33.468,193.823 33.879,193.422 L34.178,193.122 L34.188,193.108 C34.554,192.586 34.605,192.497 34.841,191.776 C35.085,191.037 34.9,191.134 35.7,190.187 L35.778,190.096 C36.154,189.73 37.038,189.411 38.289,189.205 C39.574,189.033 41.244,188.913 43.177,188.854 C45.14,188.823 49.443,189.324 53.19,189.85 C55.101,190.124 56.84,190.407 58.156,190.579 C59.468,190.768 60.268,190.917 60.268,190.917 L60.329,190.585 C60.602,190.72 60.885,190.814 61.164,190.888 C61.942,191.304 62.37,191.51 62.37,191.51 L62.443,191.401 C62.897,191.564 63.356,191.753 63.809,191.942 C63.356,191.753 62.897,191.564 62.443,191.401 L62.542,191.222 C62.542,191.222 61.7,190.676 60.38,189.829 C56.355,187.296 47.981,181.883 45.253,179.44 C43.92,178.254 42.777,177.17 41.833,176.202 C40.147,174.47 39.102,173.078 39.073,172.243 C38.941,170.777 39.024,170.97 39.253,170.104 C39.504,169.295 39.517,169.148 39.516,168.397 C39.442,167.66 39.022,166.474 39.022,166.474 C38.924,166.16 37.53,163.134 35.374,160.852 C34.129,159.572 32.613,158.595 30.907,158.521 C29.624,158.481 28.664,158.841 27.998,159.481 C26.401,161.095 26.841,164.136 28.169,166.413 L28.252,166.551 C29.017,167.72 29.29,168.407 30.363,169.508 C31.726,170.913 34.402,173.042 41.037,177.98 C50.303,184.825 57.821,189.079 60.879,190.729 C55.232,188.504 50.948,186.572 45.104,185.184 L43.706,184.845 C43.706,184.845 42.724,184.625 41.228,184.146 C36.594,182.867 26.924,180.01 23.534,178.438 C19.931,176.668 17.195,175.163 15.99,173.924 C15.692,173.62 15.505,173.316 15.384,173.062 C14.803,171.609 14.952,171.761 14.889,170.796 C14.88,169.889 14.803,169.787 14.591,169.006 L14.577,168.988 C14.263,168.256 13.53,167.174 13.517,167.159 C13.42,167.06 13.082,166.658 12.536,166.096 C11.626,165.159 10.171,163.787 8.493,162.813 C6.825,161.814 5.006,161.158 3.297,161.688 C2.513,161.925 1.935,162.269 1.499,162.694 C0.517,163.649 0.316,165.029 0.648,166.412 C0.998,167.758 1.792,169.181 2.856,170.276 C2.984,170.408 3.098,170.474 3.21,170.586 L3.354,170.706 C4.588,171.79 5.006,172.409 6.884,173.371 C8.733,174.335 12.061,175.654 19.115,178.255 C26.144,180.833 32.233,182.548 36.528,183.65 C36.448,183.648 36.37,183.645 36.312,183.627 C36.448,183.648 36.568,183.661 36.732,183.697 C38.886,184.247 40.619,184.641 41.773,184.88" id="Fill-10" sketch:type="MSShapeGroup"></path>
            <path d="M419.693,36.586 L417.051,39.229 L418.639,36.059 L419.693,36.586 L419.693,36.586 Z M405.424,56.143 C407.182,53.682 409.122,50.949 411.235,47.951 C413.353,44.962 415.283,42.055 417.051,39.229 C414.937,41.699 413.086,44.077 411.501,46.365 C409.914,48.662 408.239,51.214 406.479,54.03 C405.769,54.74 405.507,55.087 405.688,55.087 C405.86,55.087 406.125,54.913 406.479,54.559 L405.424,56.143 L405.424,56.143 Z M282.266,219.47 L282.795,219.47 L282.795,220 L282.266,219.47 L282.266,219.47 Z M219.896,95.259 C219.896,90.327 219.276,85.834 218.046,81.779 C216.807,77.733 214.957,73.239 212.496,68.301 C205.095,69.357 198.754,72.53 193.468,77.816 C188.182,83.101 185.539,89.799 185.539,97.901 C185.539,106.011 187.206,111.643 190.559,114.815 C193.904,117.987 197.696,119.572 201.926,119.572 C207.913,119.572 212.403,117.285 215.402,112.701 C218.391,108.125 219.896,102.31 219.896,95.259 L219.896,95.259 Z M75.069,167.672 C75.069,181.416 79.826,193.571 89.339,204.143 L88.81,204.143 C94.096,205.554 100.784,206.258 108.896,206.258 C120.523,206.258 130.65,204.59 139.289,201.236 C147.921,197.89 155.056,193.397 160.695,187.757 C166.329,182.126 170.557,175.955 173.381,169.258 C176.199,162.567 177.61,155.696 177.61,148.642 C177.61,138.071 173.91,128.211 166.51,119.044 C159.111,109.884 147.83,105.301 132.682,105.301 C128.099,105.301 122.548,106.358 116.033,108.472 C109.509,110.586 103.165,114.023 97.005,118.779 C90.834,123.536 85.641,129.88 81.411,137.808 C77.183,145.736 75.069,155.696 75.069,167.672 L75.069,167.672 Z M251.416,99.012 C251.229,93.384 249.496,88.568 247.38,84.687 C245.267,80.813 242.532,77.642 239.188,75.173 C235.835,72.711 232.135,70.861 228.089,69.622 C224.033,68.393 220.241,67.773 216.725,67.773 C219.187,72.711 221.034,77.378 222.272,81.779 C223.504,86.19 224.124,90.682 224.124,95.259 C224.124,101.955 222.355,108.208 218.837,114.023 C215.312,119.836 209.671,122.743 201.926,122.743 C196.64,122.743 191.88,120.892 187.653,117.193 C183.426,113.494 181.31,107.068 181.31,97.901 C181.31,88.386 184.128,80.813 189.768,75.173 C195.401,69.539 202.271,66.013 210.381,64.601 C202.271,51.569 191.17,40.906 177.082,32.622 C162.984,24.346 147.654,20.202 131.095,20.202 C119.469,20.202 107.922,22.762 96.475,27.865 C85.02,32.977 74.623,40.023 65.29,49.009 C55.949,57.993 48.457,68.747 42.826,81.25 C37.184,93.762 34.368,107.596 34.368,122.743 C34.368,131.556 35.426,139.922 37.54,147.849 C39.654,155.779 42.999,164.153 47.583,172.958 L47.583,172.429 C52.513,180.54 57.89,186.881 63.703,191.458 C69.518,196.042 75.772,199.568 82.469,202.027 C75.069,192.167 71.368,180.713 71.368,167.672 C71.368,155.696 73.655,145.471 78.239,137.014 C82.815,128.558 88.366,121.686 94.891,116.401 C101.404,111.116 108.104,107.333 114.976,105.035 C121.845,102.749 127.742,101.601 132.682,101.601 C140.783,101.601 147.921,102.922 154.089,105.565 C160.249,108.208 165.362,111.824 169.416,116.401 C173.464,120.984 176.463,126.095 178.403,131.728 C180.336,137.369 181.31,143.012 181.31,148.642 C181.31,156.043 179.808,163.36 176.819,170.58 C173.818,177.805 169.235,184.413 163.075,190.4 C156.904,196.396 149.332,201.236 140.346,204.936 C131.36,208.635 120.873,210.487 108.896,210.487 L101.497,210.487 C99.381,210.487 97.087,210.139 94.624,209.428 C105.544,217.885 119.469,222.114 136.381,222.114 C153.296,222.114 171.086,217.176 189.768,207.315 C208.439,197.453 226.586,184.767 244.21,169.258 C261.825,153.756 278.302,136.668 293.629,117.987 C308.959,99.313 321.907,80.987 332.479,63.015 L332.479,63.544 C334.942,56.499 337.584,49.273 340.408,41.872 C343.224,34.473 345.866,27.692 348.337,21.523 C350.799,15.362 353.094,10.25 355.209,6.194 C357.323,2.147 359.081,0.116 360.495,0.116 C361.552,0.116 362.426,0.471 363.138,1.173 C363.138,5.756 360.578,15.097 355.473,29.187 C350.359,43.285 342.341,60.025 331.424,79.401 C328.599,87.858 325.426,97.464 321.907,108.208 C318.384,118.961 314.948,129.797 311.604,140.714 C308.248,151.642 305.079,161.949 302.087,171.637 C299.091,181.333 296.711,189.17 294.952,195.157 C298.124,191.284 301.468,187.32 304.996,183.264 C308.515,179.217 312.212,174.725 316.094,169.785 C323.139,160.981 330.539,151.731 338.294,142.036 C346.042,132.347 353.971,122.57 362.08,112.701 C364.542,109.53 368.067,104.071 372.652,96.315 C376.525,89.972 380.752,83.191 385.337,75.965 C389.912,68.747 394.406,61.958 398.816,55.615 C403.217,49.273 407.354,43.905 411.235,39.494 C415.11,35.092 418.282,32.54 420.751,31.83 C421.098,31.83 421.626,31.921 422.336,32.094 C423.038,32.275 423.212,33.242 422.865,35 C422.509,37.116 420.305,41.435 416.258,47.951 C412.203,54.476 406.828,61.958 400.138,70.416 C393.084,81.697 385.865,93.499 378.467,105.829 C371.066,118.167 364.367,130.325 358.38,142.3 C352.384,154.285 347.454,165.914 343.58,177.185 C339.698,188.467 337.765,198.855 337.765,208.372 C337.765,215.771 339.353,221.849 342.522,226.606 C345.694,231.364 350.799,234.09 357.853,234.8 L363.664,234.8 C373.883,233.741 382.783,229.616 391.1,224.715 C391.704,224.36 393.082,223.395 394.734,222.403 C395.976,221.658 396.75,221.022 398.862,220.144 C400.979,219.262 402.068,218.678 403.837,218.151 C405.597,217.621 406.918,217.438 407.8,217.621 C408.676,217.796 408.769,218.414 408.066,219.47 C408.066,219.47 402.953,226.689 395.908,230.569 C394.14,231.272 391.589,232.33 388.246,233.741 C384.891,235.147 382.165,236.03 380.051,236.386 C375.822,237.79 371.412,238.5 366.836,238.5 L363.138,238.5 C355.735,238.5 349.925,237.351 345.694,235.064 C341.466,232.768 338.294,229.778 336.181,226.078 C334.067,222.379 332.746,218.151 332.217,213.392 C331.687,208.635 331.424,203.969 331.424,199.386 C331.424,187.41 332.828,176.574 335.652,166.879 C338.468,157.19 342.697,146.885 348.337,135.957 C337.056,149.702 326.574,162.742 316.89,175.071 C307.191,187.41 298.998,197.628 292.308,205.729 L292.308,205.199 C291.598,206.612 290.987,207.844 290.46,208.901 C289.931,209.958 289.666,211.013 289.666,212.07 C288.609,215.242 287.552,217.885 286.497,220 C285.438,222.114 283.853,223.172 281.737,223.172 C279.971,223.172 278.913,222.725 278.568,221.849 C278.212,220.965 278.212,219.818 278.568,218.414 C278.913,217.002 279.442,215.771 280.152,214.713 C280.854,213.656 281.384,212.773 281.737,212.07 C285.967,206.786 290.194,197.8 294.425,185.114 C298.651,172.429 303.228,157.983 308.165,141.772 C310.983,132.969 313.271,125.122 315.038,118.25 C316.796,111.38 319.085,103.715 321.907,95.259 C314.152,107.596 305.433,119.836 295.746,131.993 C286.05,144.15 275.741,155.342 264.824,165.558 C256.712,172.958 247.556,180.448 237.338,188.023 C227.115,195.603 216.635,202.474 205.889,208.635 C195.135,214.796 184.301,219.818 173.381,223.7 C162.456,227.572 152.058,229.513 142.196,229.513 C130.914,229.513 120.343,227.308 110.482,222.906 C100.611,218.497 92.685,213.302 86.695,207.315 L87.226,207.315 C79.116,205.199 71.541,201.418 64.497,195.95 C57.443,190.49 51.284,183.974 45.998,176.392 C40.712,168.819 36.565,160.362 33.576,151.021 C30.578,141.69 29.083,131.911 29.083,121.686 C29.083,107.944 31.726,94.556 37.012,81.515 C42.297,68.483 49.517,56.937 58.683,46.893 C67.843,36.851 78.505,28.75 90.66,22.58 C102.818,16.418 115.94,13.33 130.04,13.33 C138.498,13.33 146.862,14.477 155.146,16.765 C163.421,19.061 171.267,22.406 178.667,26.809 C186.068,31.219 192.848,36.586 199.017,42.929 C205.178,49.273 210.381,56.326 214.61,64.072 C219.187,64.072 223.86,64.865 228.616,66.452 C233.373,68.036 237.603,70.333 241.302,73.322 C245.003,76.321 248.175,80.285 250.817,85.215 C253.46,90.154 254.954,95.968 255.308,102.658 C255.308,107.944 254.954,112.882 254.253,117.458 C253.543,122.041 251.759,126.613 247.885,131.544 L246.324,133.314 L245.795,133.844 C245.795,133.844 242.005,137.808 241.831,136.222 C241.651,134.637 243.472,132.615 245.041,130.137 C246.37,128.038 247.791,125.762 249.346,120.815 C249.346,120.815 251.916,114.012 251.416,99.012 L251.416,99.012 Z" id="Fill-13" sketch:type="MSShapeGroup"></path>
            <path d="M40.919,115.944 C38.96,121.98 36.585,127.896 33.913,133.668 C34.464,132.04 33.453,133.909 33.453,133.909 L33.779,133.998 C33.624,134.256 33.509,134.533 33.411,134.802 C32.936,135.551 32.697,135.96 32.697,135.96 L32.802,136.04 C32.602,136.481 32.381,136.921 32.154,137.359 C32.381,136.921 32.602,136.481 32.802,136.04 L32.973,136.153 C32.973,136.153 33.582,135.356 34.529,134.104 C37.372,130.293 43.425,122.367 46.071,119.838 C47.359,118.604 48.527,117.548 49.566,116.684 C51.426,115.14 52.895,114.206 53.731,114.243 C55.202,114.226 55.003,114.292 55.847,114.591 C56.638,114.904 56.781,114.929 57.529,114.985 C58.269,114.97 59.483,114.642 59.483,114.642 C59.807,114.57 62.932,113.418 65.373,111.447 C66.751,110.306 67.842,108.871 68.049,107.176 C68.187,105.9 67.907,104.916 67.322,104.202 C65.835,102.482 62.771,102.682 60.394,103.829 L60.254,103.9 C59.026,104.57 58.321,104.79 57.139,105.773 C55.632,107.022 53.298,109.522 47.859,115.751 C40.308,124.453 35.477,131.616 33.594,134.535 C36.255,129.079 38.729,124.155 40.572,118.434 L40.803,117.874 C40.803,117.874 41.102,116.911 41.694,115.457 C43.333,110.939 46.939,101.521 48.77,98.265 C50.817,94.813 52.532,92.203 53.861,91.097 C54.191,90.826 54.508,90.664 54.77,90.562 C56.265,90.098 56.099,90.234 57.067,90.244 C57.972,90.307 58.079,90.239 58.878,90.091 L58.892,90.079 C59.649,89.822 60.787,89.176 60.803,89.165 C60.905,89.073 61.335,88.768 61.936,88.269 C62.943,87.434 64.424,86.089 65.527,84.495 C66.653,82.911 67.452,81.148 67.053,79.404 C66.882,78.604 66.583,77.999 66.191,77.53 C65.319,76.478 63.958,76.17 62.552,76.395 C61.184,76.635 59.704,77.318 58.528,78.291 C58.387,78.41 58.314,78.517 58.191,78.619 L58.062,78.755 C56.884,79.899 56.233,80.268 55.126,82.064 C54.021,83.831 52.447,87.048 49.297,93.875 C46.178,100.679 43.994,106.617 42.559,110.814 C42.565,110.733 42.575,110.657 42.596,110.598 C42.565,110.733 42.543,110.85 42.494,111.012 C41.776,113.114 41.25,114.812 40.919,115.944" id="Fill-16" sketch:type="MSShapeGroup"></path>
            <path d="M79.344,29.281 C75.764,31.781 72.349,34.53 69.087,37.443 C70.049,36.755 69.021,37.795 69.021,37.795 L68.896,37.597 C68.759,37.752 68.599,37.883 68.44,38.001 C68.046,38.464 67.822,38.703 67.822,38.703 L67.75,38.651 C67.499,38.87 67.253,39.103 67.011,39.34 C67.253,39.103 67.499,38.87 67.75,38.651 L67.641,38.561 C67.641,38.561 68.043,38.001 68.677,37.126 C70.614,34.492 74.614,28.921 75.748,26.672 C76.302,25.577 76.762,24.597 77.124,23.74 C77.765,22.208 78.086,21.055 77.894,20.511 C77.61,19.541 77.606,19.684 77.241,19.19 C76.876,18.731 76.832,18.642 76.645,18.161 C76.505,17.671 76.477,16.807 76.477,16.807 C76.46,16.58 76.593,14.293 77.398,12.292 C77.874,11.157 78.599,10.151 79.672,9.675 C80.484,9.328 81.187,9.316 81.774,9.557 C83.204,10.19 83.686,12.246 83.409,14.04 L83.391,14.146 C83.196,15.088 83.191,15.595 82.783,16.572 C82.263,17.813 81.086,19.849 78.078,24.676 C73.869,31.389 70.124,36.003 68.581,37.828 C71.638,34.982 74.825,32.3 78.219,29.94 L78.096,29.745 C78.096,29.745 78.671,29.356 79.507,28.675 C82.152,26.69 87.624,22.429 89.399,20.572 C91.261,18.533 92.635,16.881 93.094,15.785 C93.207,15.514 93.25,15.274 93.265,15.08 C93.27,14.004 93.26,14.123 93.014,13.507 C92.541,12.325 92.971,10.845 92.974,10.831 C93.014,10.745 93.13,10.402 93.336,9.906 C93.684,9.076 94.272,7.833 95.1,6.788 C95.917,5.729 96.916,4.85 98.143,4.762 C98.703,4.715 99.16,4.79 99.548,4.953 C100.415,5.317 100.891,6.151 101.025,7.12 C101.14,8.069 100.988,9.18 100.584,10.148 C100.534,10.265 100.479,10.335 100.436,10.435 L100.372,10.548 C99.854,11.552 99.744,12.055 98.784,13.142 C97.843,14.224 96.042,15.905 92.182,19.344 C88.33,22.76 84.862,25.388 82.389,27.174 C82.441,27.153 82.49,27.132 82.524,27.106 C82.441,27.153 82.368,27.191 82.272,27.256 C81.033,28.15 80.021,28.838 79.344,29.281" id="Fill-18" sketch:type="MSShapeGroup"></path>
            <path d="M432.505,232.059 C433.523,232.095 434.477,231.927 435.358,231.557 C436.237,231.188 436.979,230.59 437.577,229.76 C438.176,228.932 438.459,227.796 438.422,226.351 C438.422,225.329 438.213,224.501 437.789,223.868 C437.365,223.232 436.855,222.74 436.255,222.387 C435.656,222.036 434.995,221.788 434.273,221.646 C433.552,221.506 432.874,221.428 432.238,221.409 C431.605,221.391 431.05,221.409 430.575,221.462 C430.097,221.514 429.808,221.54 429.702,221.54 L429.702,231.583 C430.546,231.866 431.479,232.025 432.505,232.059 L432.505,232.059 Z M431.975,219.956 C432.854,219.956 433.667,219.814 434.405,219.533 C435.146,219.25 435.771,218.766 436.283,218.079 C436.793,217.392 437.03,216.413 436.996,215.144 C436.996,214.335 436.855,213.675 436.572,213.164 C436.292,212.653 435.939,212.257 435.516,211.974 C435.093,211.692 434.617,211.498 434.087,211.391 C433.561,211.287 433.048,211.234 432.556,211.234 C431.852,211.234 431.233,211.279 430.706,211.366 C430.177,211.455 429.842,211.535 429.702,211.603 L429.702,219.849 C430.372,219.92 431.127,219.956 431.975,219.956 L431.975,219.956 Z M426.424,210.124 C427.234,210.124 427.93,210.115 428.514,210.097 C429.095,210.081 429.63,210.063 430.125,210.045 C430.618,210.027 431.102,210.011 431.577,209.992 C432.055,209.974 432.573,209.966 433.137,209.966 C434.159,209.966 435.155,210.038 436.123,210.178 C437.094,210.318 437.955,210.573 438.714,210.944 C439.473,211.314 440.07,211.824 440.512,212.476 C440.952,213.13 441.153,213.966 441.118,214.987 C441.084,215.869 440.872,216.625 440.485,217.261 C440.097,217.893 439.604,218.423 439.006,218.846 C438.404,219.268 437.734,219.603 436.996,219.849 C436.255,220.097 435.516,220.291 434.774,220.431 C435.834,220.503 436.845,220.687 437.814,220.986 C438.785,221.286 439.639,221.701 440.38,222.227 C441.118,222.757 441.691,223.427 442.098,224.237 C442.501,225.048 442.688,225.999 442.653,227.092 C442.581,228.22 442.28,229.179 441.754,229.971 C441.225,230.764 440.512,231.426 439.612,231.954 C438.714,232.482 437.675,232.863 436.495,233.091 C435.313,233.319 434.07,233.398 432.768,233.329 C431.605,233.292 430.231,233.249 428.646,233.196 C427.06,233.143 425.016,233.135 422.513,233.169 L422.513,232.43 L425.948,231.214 L425.948,212.027 L422.513,210.759 L422.513,210.124 L426.424,210.124 L426.424,210.124 Z" id="Fill-21" sketch:type="MSShapeGroup"></path>
            <path d="M457.133,219.956 C458.049,219.814 458.833,219.551 459.486,219.163 C460.139,218.775 460.648,218.237 461.018,217.55 C461.39,216.862 461.573,215.973 461.573,214.882 C461.539,213.579 461.141,212.653 460.385,212.106 C459.626,211.56 458.79,211.234 457.874,211.129 C456.78,210.988 455.547,211.058 454.173,211.341 L454.173,220.115 C455.232,220.149 456.217,220.097 457.133,219.956 L457.133,219.956 Z M448.201,210.178 C448.837,210.178 449.558,210.17 450.368,210.151 C451.179,210.134 452.06,210.106 453.011,210.072 C453.964,210.038 454.897,210.001 455.813,209.966 C459.125,209.79 461.619,210.106 463.291,210.917 C464.966,211.728 465.767,213.208 465.695,215.356 C465.627,216.837 464.982,218.062 463.769,219.03 C462.552,220 460.623,220.573 457.98,220.747 C459.46,221.1 460.694,221.735 461.679,222.651 C462.667,223.567 463.511,224.563 464.216,225.637 C464.923,226.714 465.556,227.769 466.119,228.809 C466.683,229.848 467.281,230.649 467.917,231.214 C468.197,231.355 468.532,231.497 468.922,231.637 C469.239,231.777 469.601,231.92 470.004,232.059 C470.41,232.201 470.86,232.324 471.353,232.43 L471.301,233.169 C471.195,233.169 470.763,233.178 470.004,233.196 C469.245,233.214 468.427,233.223 467.548,233.223 L464.058,233.223 C463.565,232.342 463.027,231.214 462.446,229.84 C461.865,228.466 461.187,227.126 460.411,225.823 C459.635,224.519 458.747,223.419 457.743,222.519 C456.737,221.621 455.547,221.189 454.173,221.224 L454.173,231.214 L457.188,232.43 L457.188,233.169 L446.933,233.169 L446.933,232.43 L450.368,231.214 L450.368,212.027 L446.933,210.81 L446.933,210.178 L448.201,210.178 L448.201,210.178 Z" id="Fill-24" sketch:type="MSShapeGroup"></path>
            <path d="M473.202,233.169 L473.202,232.43 L476.637,231.214 L476.637,211.974 L473.202,210.81 L473.202,210.124 L483.985,210.124 L483.985,210.81 L480.603,211.974 L480.603,231.214 L484.037,232.43 L484.037,233.169 L473.202,233.169" id="Fill-27" sketch:type="MSShapeGroup"></path>
            <path d="M500.315,231.743 C501.795,231.566 503.083,231.082 504.174,230.289 C505.268,229.496 506.104,228.359 506.685,226.88 C507.266,225.399 507.541,223.462 507.504,221.065 C507.47,219.585 507.274,218.194 506.923,216.889 C506.57,215.586 505.946,214.485 505.048,213.586 C504.148,212.688 502.923,212.036 501.374,211.631 C499.823,211.225 497.851,211.164 495.454,211.446 L495.454,231.583 C497.215,231.866 498.835,231.92 500.315,231.743 L500.315,231.743 Z M492.308,210.045 C493.49,210.027 494.483,210.011 495.294,209.992 C496.104,209.974 496.739,209.966 497.197,209.966 L498.254,209.966 C499.769,209.931 501.312,210.054 502.88,210.336 C504.449,210.619 505.875,211.173 507.16,212.002 C508.448,212.829 509.505,213.974 510.332,215.437 C511.159,216.9 511.592,218.792 511.629,221.118 C511.663,223.796 511.223,225.937 510.307,227.541 C509.39,229.144 508.236,230.378 506.845,231.239 C505.451,232.104 503.954,232.668 502.351,232.931 C500.747,233.196 499.293,233.292 497.99,233.223 L496.935,233.223 C496.511,233.223 495.93,233.214 495.19,233.196 C494.449,233.178 493.499,233.169 492.337,233.169 L488.054,233.169 L488.054,232.43 L491.489,231.214 L491.489,212.027 L488.054,210.81 L488.054,210.124 C489.708,210.09 491.128,210.063 492.308,210.045 L492.308,210.045 Z" id="Fill-30" sketch:type="MSShapeGroup"></path>
            <path d="M526.375,212.555 L522.886,222.387 L529.916,222.387 L526.375,212.555 L526.375,212.555 Z M519.714,231.373 L522.358,232.536 L522.358,233.169 L514.06,233.169 L514.06,232.536 L517.283,231.214 L525.053,210.124 L529.281,209.807 L537.156,231.162 L540.328,232.536 L540.328,233.169 L530.286,233.169 L530.286,232.536 L533.194,231.373 L530.392,223.762 L522.41,223.762 L519.714,231.373 L519.714,231.373 Z" id="Fill-33" sketch:type="MSShapeGroup"></path>
            <path d="M553.174,210.81 L549.735,211.974 L549.735,231.426 C551.462,231.426 553.014,231.408 554.388,231.373 C555.55,231.373 556.617,231.364 557.585,231.345 C558.556,231.328 559.057,231.319 559.091,231.319 L560.677,227.144 L561.364,227.144 L561.101,233.169 L542.495,233.169 L542.495,232.43 L545.931,231.214 L545.931,211.974 L542.495,210.81 L542.495,210.124 L553.174,210.124 L553.174,210.81" id="Fill-36" sketch:type="MSShapeGroup"></path>
            <path d="M572.632,230.501 C572.632,232.12 571.319,233.432 569.7,233.432 C568.081,233.432 566.769,232.12 566.769,230.501 C566.769,228.882 568.081,227.569 569.7,227.569 C571.319,227.569 572.632,228.882 572.632,230.501" id="Fill-39" sketch:type="MSShapeGroup"></path>
        </g>
    </g>
</svg>