<?xml version="1.0" encoding="UTF-8" standalone="no"?>
<svg width="222px" height="352px" viewBox="0 0 222 352" version="1.1" xmlns="http://www.w3.org/2000/svg" xmlns:xlink="http://www.w3.org/1999/xlink" xmlns:sketch="http://www.bohemiancoding.com/sketch/ns">
    <title>Oval Mark Out</title>
    <defs>
        <ellipse id="path-1" cx="111" cy="176" rx="111" ry="176"></ellipse>
    </defs>
    <g id="Brand-Board" stroke="none" stroke-width="1" fill="none" fill-rule="evenodd" sketch:type="MSPage">
        <g id="Developments" sketch:type="MSArtboardGroup" transform="translate(-85.000000, -97.000000)">
            <g id="Oval-Mark-Out" sketch:type="MSLayerGroup" transform="translate(85.000000, 97.000000)">
                <g id="Oval-Mark">
                    <mask id="mask-2" sketch:name="Oval" fill="white">
                        <use xlink:href="#path-1"></use>
                    </mask>
                    <use id="Oval" fill="#9AD0D6" sketch:type="MSShapeGroup" xlink:href="#path-1"></use>
                    <path d="M85.7322454,197.659042 C119.20586,169.614241 145.90827,129.38107 148.783485,122.575352 C151.6587,115.769635 154.818929,103.444865 157.550591,97.4116995 C160.282252,91.3785339 164.647061,74.9929323 169.820985,76.397871 C174.994908,77.8028097 165.009922,103.461999 161.78837,109.457027 C158.566817,115.452054 149.50134,131.548835 149.142413,133.061866 C148.783486,134.574897 139.181526,164.869023 135.096878,177.556775 C131.012231,190.244526 123.207272,214.048497 123.207272,214.048497 C123.207272,214.048497 144.312857,189.427329 151.576806,180.440533 C158.840754,171.453737 171.234466,156.271181 171.234466,156.271181 C171.234466,156.271181 185.668924,132.570931 191.26196,123.420695 C196.854995,114.270459 201.60628,109.27928 205.072183,104.925354 C208.538085,100.571428 211.090795,100.559642 211.090795,100.559642 L213.101711,107.201715 C213.101711,107.201715 195.332475,133.925593 193.297216,136.194094 C191.261958,138.462596 176.105106,165.471711 172.245028,172.956119 C168.38495,180.440528 153.206895,205.614874 153.206896,226.580666 C153.206897,247.546458 164.821677,245.873567 168.533354,245.873559 C172.24503,245.873551 180.711912,244.61005 189.623232,239.586652 C198.534553,234.563253 201.326743,232.628699 203.199464,234.083938 C205.072185,235.539177 199.724141,242.699852 193.620722,245.061078 C187.517303,247.422304 180.874523,249.745808 169.212558,249.74581 C157.550593,249.745812 145.959684,243.800714 147.551049,224.553392 C149.142413,205.306069 149.952207,199.232739 151.576801,194.812029 C153.201396,190.391318 156.649244,180.710836 156.649244,180.710836 C156.649244,180.710836 138.243988,205.577952 134.09731,209.813222 C129.950631,214.048492 123.537058,219.93938 120.968646,225.118357 C118.400235,230.297333 116.930325,238.031616 114.865231,238.031622 C112.800138,238.031628 109.805356,240.55472 108.846619,238.232778 C107.887881,235.910836 111.075821,232.10067 112.970527,227.340501 C114.865232,222.580331 119.205856,215.209858 119.205856,215.209858 C119.205856,215.209858 129.379786,184.069981 131.035002,178.513051 C132.690218,172.956121 138.600473,150.989267 138.600473,150.989267 C138.600473,150.989267 111.454292,187.941453 100.275298,197.866448 C89.0963035,207.791443 61.901439,229.02675 42.8782264,235.437811 C23.8550138,241.848873 23.7395872,243.667911 15.5310323,243.667916 C7.32247746,243.667921 8.74861794,243.912369 8.74861794,243.912369 L6.29018783,237.575303 C6.29018783,237.575303 9.75269316,238.264204 20.0027869,236.174073 C30.2528807,234.083943 52.2586307,225.703843 85.7322454,197.659042 Z M37.284208,94.8310292 C54.2941396,104.559643 64.3679112,123.692742 64.3679112,123.692742 C64.3679112,123.692742 82.0434805,122.72035 89.4913131,136.411814 C96.9391457,150.103277 92.7115394,164.88739 91.1014265,168.700855 C89.4913136,172.514321 85.5979375,177.177105 83.6564124,175.873066 C81.7148873,174.569027 89.6049125,165.052741 89.604913,153.44511 C89.6049134,141.837479 85.1829677,134.467969 81.6219426,132.311797 C78.0609176,130.155625 74.2408047,127.855733 72.1832417,127.855732 C70.1256787,127.855732 66.4663034,127.222487 66.4663034,127.222487 C66.4663034,127.222487 72.9986709,140.080768 71.0667744,149.690106 C69.1348779,159.299443 66.3060102,166.314878 55.2290233,166.31488 C44.1520364,166.314882 38.2083418,159.886421 39.0505793,146.09911 C39.8928168,132.311798 44.615043,130.812365 48.1582496,128.251999 C51.7014563,125.691633 59.020209,123.869028 59.020209,123.869028 C59.020209,123.869028 49.7930163,108.634263 35.1119461,100.770959 C20.430876,92.9076563 12.7155777,93.5135146 12.7155777,93.5135146 L14.1576581,87.4834359 C14.1576581,87.4834359 20.2742764,85.1024152 37.284208,94.8310292 Z M46.9262877,136.02535 C40.8377754,144.247463 38.9547855,159.214833 50.8692807,162.266272 C62.7865509,165.318422 67.276776,155.18354 66.8334202,145.286515 C66.4342488,136.375814 61.6314993,127.736164 61.6314993,127.736164 C61.6314993,127.736164 52.4107213,128.619004 46.9262877,136.02535 Z M39.9178676,181.257837 C40.8134241,211.382566 18.4098323,224.512108 4.80814618,227.533715 C3.98638985,228.526005 4.80814607,223.653639 4.80814607,223.653639 C4.80814607,223.653639 37.1028968,216.460132 35.9652761,183.138386 C32.363693,150.275537 0.648747203,154.510457 0.648747203,154.510457 L1.46200067,149.723339 C1.46200067,149.723339 39.022311,151.133108 39.9178676,181.257837 Z" id="Letter" fill="#919C8D" sketch:type="MSShapeGroup" mask="url(#mask-2)"></path>
                </g>
                <path d="M68.5719998,299.96 C68.5719998,301.117339 68.2173367,302.111329 67.5079998,302.942 C66.798663,303.772671 65.8186728,304.327999 64.5679998,304.608 C63.5786616,304.832001 62.6453376,304.962666 61.7679998,305 C60.8906621,305.037334 58.3146879,305.056 54.0399998,305.056 C53.4426635,305.056 53.0880004,305.046667 52.9759998,305.028 C52.8639993,305.009333 52.8079998,304.944001 52.8079998,304.832 C52.8079998,304.663999 53.1113301,304.58 53.7179998,304.58 C54.3246695,304.58 54.7026658,304.491334 54.8519998,304.314 C55.0013339,304.136666 55.0759998,303.70267 55.0759998,303.012 L55.0479998,286.996 C55.0479998,286.454664 54.6186708,286.174667 53.7599998,286.156 C53.1066632,286.137333 52.7799998,286.053334 52.7799998,285.904 C52.7799998,285.735999 52.9853311,285.652 53.3959998,285.652 C53.7880018,285.689334 54.1706646,285.708 54.5439998,285.708 L61.2639998,285.708 C65.5760214,285.708 67.7319998,287.182652 67.7319998,290.132 C67.7319998,292.577346 66.1266826,294.08933 62.9159998,294.668 L62.8599998,294.78 C64.7453426,295.172002 66.0519962,295.666664 66.7799998,296.264 C67.9746725,297.253338 68.5719998,298.485326 68.5719998,299.96 L68.5719998,299.96 Z M63.5879998,290.244 C63.5879998,287.53732 62.7480082,286.184 61.0679998,286.184 C60.4706635,286.184 60.0693342,286.212 59.8639998,286.268 C59.4533311,286.398667 59.2479998,286.687998 59.2479998,287.136 L59.2479998,294.528 C60.9093415,294.528 62.0479968,294.23867 62.6639998,293.66 C63.2800029,293.08133 63.5879998,291.942675 63.5879998,290.244 L63.5879998,290.244 Z M64.0919998,299.82 C64.0919998,297.187987 63.3360074,295.657335 61.8239998,295.228 C61.2266635,295.059999 60.3680054,294.976 59.2479998,294.976 L59.3039998,296.6 C59.3039998,297.066669 59.2853334,297.729329 59.2479998,298.588 C59.2293331,299.017335 59.2199998,299.819994 59.2199998,300.996 C59.2199998,303.01201 59.2759993,304.085333 59.3879998,304.216 C59.5373339,304.421334 59.9573297,304.524 60.6479998,304.524 C62.9440113,304.524 64.0919998,302.956016 64.0919998,299.82 L64.0919998,299.82 Z M89.5359999,303.908 C89.5359999,304.953339 88.8546734,305.476 87.4919999,305.476 C85.774658,305.476 84.4026717,304.934672 83.3759999,303.852 C82.5733292,303.011996 82.1160004,302.116005 82.0039999,301.164 L81.7239999,298.868 C81.5373323,297.411993 81.196669,296.39467 80.7019999,295.816 C80.2073307,295.23733 79.4093387,294.957333 78.3079999,294.976 L78.3079999,301.332 C78.3079999,302.806674 78.3173331,303.599999 78.3359999,303.712 C78.3359999,304.029335 78.4666652,304.248666 78.7279999,304.37 C78.9893345,304.491334 79.4839962,304.552 80.2119999,304.552 C80.6600021,304.552 80.8839999,304.635999 80.8839999,304.804 C80.8839999,304.953334 80.772001,305.028 80.5479999,305.028 L77.8319999,305 L77.3839999,305 C77.0479982,305.018667 76.730668,305.028 76.4319999,305.028 L74.4159999,305.028 C74.2293323,305.028 74.0146678,305.018667 73.7719999,305 L73.3799999,305 L72.0919999,305.028 C71.8306652,305.028 71.6999999,304.953334 71.6999999,304.804 C71.6999999,304.635999 72.0826627,304.533334 72.8479999,304.496 C73.4826697,304.458666 73.8559993,304.309335 73.9679999,304.048 C74.0240002,303.917333 74.0519999,303.525337 74.0519999,302.872 L74.0519999,288.452 C74.0519999,287.481328 74.0333334,286.907334 73.9959999,286.73 C73.9586664,286.552666 73.8373342,286.417334 73.6319999,286.324 C73.3706652,286.211999 72.9506694,286.156 72.3719999,286.156 C71.9613312,286.156 71.7559999,286.072001 71.7559999,285.904 C71.7559999,285.773333 71.839999,285.694 72.0079999,285.666 C72.1760007,285.638 72.6239962,285.624 73.3519999,285.624 L73.8559999,285.624 C74.1920016,285.642667 74.518665,285.652 74.8359999,285.652 L75.7599999,285.652 C75.7786666,285.652 75.9746647,285.642667 76.3479999,285.624 L77.3559999,285.624 L78.9799999,285.624 C81.5933463,285.624 83.3759951,285.829331 84.3279999,286.24 C85.0746703,286.557335 85.6719976,287.042663 86.1199999,287.696 C86.5680021,288.349337 86.7919999,289.067996 86.7919999,289.852 C86.7919999,291.644009 85.8586759,292.969329 83.9919999,293.828 C83.1706624,294.201335 81.9573412,294.481332 80.3519999,294.668 L80.3239999,294.836 C82.3586767,294.966667 83.8333286,295.503329 84.7479999,296.446 C85.6626711,297.388671 86.2133323,298.914656 86.3999999,301.024 C86.549334,302.704008 86.782665,303.753998 87.0999999,304.174 C87.4173348,304.594002 87.7439982,304.804 88.0799999,304.804 C88.3600013,304.804 88.4999999,304.729334 88.4999999,304.58 C88.4999999,304.505333 88.3926676,304.402667 88.1779999,304.272 C87.9633321,304.141333 87.8559999,303.954668 87.8559999,303.712 C87.8559999,303.207997 88.1359971,302.956 88.6959999,302.956 C89.2560027,302.956 89.5359999,303.27333 89.5359999,303.908 L89.5359999,303.908 Z M82.4519999,289.768 C82.4519999,287.359988 81.5000094,286.156 79.5959999,286.156 C78.9799968,286.156 78.597334,286.361331 78.4479999,286.772 C78.3546661,287.033335 78.3079999,288.050658 78.3079999,289.824 L78.3079999,294.472 C79.7640072,294.490667 80.8186633,294.12667 81.4719999,293.38 C82.1253365,292.63333 82.4519999,291.429342 82.4519999,289.768 L82.4519999,289.768 Z M100.112,304.804 C100.112,304.953334 99.9906678,305.028 99.7479999,305.028 C99.6173326,305.028 99.4960005,305.018667 99.3839999,305 C98.2639943,304.944 97.3026706,304.916 96.4999999,304.916 C95.6599957,304.916 94.428008,304.944 92.8039999,305 C92.2626639,305.018667 91.8613346,305.028 91.5999999,305.028 C91.3199985,305.028 91.1799999,304.944001 91.1799999,304.776 C91.1799999,304.682666 91.2313327,304.626667 91.3339999,304.608 C91.4366671,304.589333 91.7959968,304.570667 92.4119999,304.552 C92.9906695,304.439999 93.3266661,304.267335 93.4199999,304.034 C93.5133337,303.800666 93.5599999,303.04934 93.5599999,301.78 L93.5599999,288.312 L93.5599999,287.276 C93.5413332,286.939998 93.5319999,286.781333 93.5319999,286.8 C93.5319999,286.333331 93.0653379,286.1 92.1319999,286.1 C91.6093306,286.1 91.3479999,286.034667 91.3479999,285.904 C91.3479999,285.773333 91.3853329,285.698667 91.4599999,285.68 C91.534667,285.661333 91.7773312,285.652 92.1879999,285.652 C92.0013323,285.652 92.337329,285.661333 93.1959999,285.68 C94.0546709,285.698667 94.7919968,285.708 95.4079999,285.708 L96.8359999,285.708 C97.1346681,285.708 97.5593305,285.694 98.1099999,285.666 C98.6606693,285.638 99.0479988,285.624 99.2719999,285.624 L99.5519999,285.624 C99.7946678,285.624 99.9159999,285.698666 99.9159999,285.848 C99.9159999,285.960001 99.8740003,286.03 99.7899999,286.058 C99.7059995,286.086 99.4213357,286.109333 98.9359999,286.128 C98.3573304,286.165334 98.0026672,286.286666 97.8719999,286.492 L97.7879999,287.024 L97.7879999,302.844 C97.7879999,303.646671 97.8766657,304.122666 98.0539999,304.272 C98.2313341,304.421334 98.8333281,304.524 99.8599999,304.58 C100.028001,304.598667 100.112,304.673333 100.112,304.804 L100.112,304.804 Z M121.272,295.2 C121.272,297.328011 120.786671,299.166659 119.816,300.716 C118.807995,302.340008 117.342676,303.52533 115.42,304.272 C114.113327,304.776003 112.16268,305.028 109.568,305.028 C109.530666,305.028 109.325335,305.018667 108.952,305 C108.578665,304.981333 108.037337,304.972 107.328,304.972 L106.32,304.972 C106.282666,304.972 105.676006,304.981333 104.5,305 L102.736,305.028 C102.455999,305.028 102.316,304.953334 102.316,304.804 C102.316,304.617332 102.577331,304.533333 103.1,304.552 C103.902671,304.570667 104.387999,304.430668 104.556,304.132 C104.630667,304.001333 104.668,303.432005 104.668,302.424 L104.668,288.172 C104.668,287.350663 104.612001,286.846668 104.5,286.66 C104.313332,286.323998 103.837337,286.165333 103.072,286.184 C102.661331,286.202667 102.456,286.109334 102.456,285.904 C102.456,285.735999 102.586665,285.652 102.848,285.652 L103.352,285.652 C104.472006,285.652 105.554661,285.661333 106.6,285.68 C108.093341,285.698667 109.250663,285.708 110.072,285.708 C113.46935,285.708 116.073324,286.407993 117.884,287.808 C120.142678,289.562675 121.272,292.026651 121.272,295.2 L121.272,295.2 Z M116.428,295.2 C116.428,292.119985 115.970671,289.866007 115.056,288.438 C114.141329,287.009993 112.70401,286.296 110.744,286.296 C110.034663,286.296 109.568001,286.370666 109.344,286.52 C109.045332,286.706668 108.896,287.14533 108.896,287.836 L108.896,302.172 C108.896,303.404006 108.970666,304.085333 109.12,304.216 C109.344001,304.421334 109.838663,304.524 110.604,304.524 C114.486686,304.524 116.428,301.416031 116.428,295.2 L116.428,295.2 Z M143.02,304.72 C143.02,304.869334 142.950001,304.958 142.81,304.986 C142.669999,305.014 142.31067,305.028 141.732,305.028 C141.582666,305.028 141.16267,305.018667 140.472,305 C139.09066,304.962666 138.138669,304.944 137.616,304.944 C136.999997,304.944 136.458669,304.953333 135.992,304.972 C135.058662,305.009334 134.424002,305.028 134.088,305.028 C133.583998,305.028 133.332,304.934668 133.332,304.748 C133.332,304.561332 133.863995,304.458667 134.928,304.44 C135.189335,304.44 135.385333,304.421334 135.516,304.384 C135.814668,304.346666 135.964,304.234668 135.964,304.048 C135.964,303.954666 135.852001,303.56267 135.628,302.872 L135.04,301.052 C134.927999,300.641331 134.685335,299.885339 134.312,298.784 L133.808,298.784 L131.624,298.756 C130.839996,298.737333 130.009338,298.746666 129.132,298.784 C128.963999,299.157335 128.646669,299.997327 128.18,301.304 L127.564,303.124 C127.470666,303.404001 127.424,303.627999 127.424,303.796 C127.424,304.113335 127.629331,304.318666 128.04,304.412 C128.133334,304.430667 128.590663,304.468 129.412,304.524 C129.673335,304.542667 129.804,304.626666 129.804,304.776 C129.804,304.944001 129.636002,305.028 129.3,305.028 L124.68,305 C124.567999,305.018667 124.446667,305.028 124.316,305.028 C124.054665,305.028 123.924,304.934668 123.924,304.748 C123.924,304.635999 124.21333,304.561334 124.792,304.524 C125.53867,304.486666 126.014666,304.346668 126.22,304.104 C126.425334,303.861332 126.761331,303.07734 127.228,301.752 C127.582668,300.818662 128.095997,299.437342 128.768,297.608 L132.156,288.284 C132.324001,287.873331 132.557332,287.229338 132.856,286.352 C133.061334,285.71733 133.219999,285.4 133.332,285.4 C133.444001,285.4 133.649332,285.829329 133.948,286.688 C134.321335,287.789339 135.963985,292.138629 138.876,299.736 C139.249335,300.706672 139.622665,301.695995 139.996,302.704 C140.313335,303.562671 140.630665,304.085332 140.948,304.272 C141.190668,304.421334 141.769329,304.486667 142.684,304.468 C142.908001,304.468 143.02,304.551999 143.02,304.72 L143.02,304.72 Z M134.116,298.168 C134.097333,298.112 134.032001,297.934668 133.92,297.636 C133.17333,295.470656 132.632002,293.949338 132.296,293.072 C132.202666,292.829332 132.072001,292.474669 131.904,292.008 L131.736,291.504 C131.399998,292.306671 130.989336,293.417326 130.504,294.836 C129.962664,296.422675 129.570668,297.53333 129.328,298.168 C129.496001,298.168 129.701332,298.158667 129.944,298.14 L130.56,298.14 L132.128,298.14 C132.557336,298.14 133.219996,298.149333 134.116,298.168 L134.116,298.168 Z M160.12,300.268 C160.12,300.622668 160.110667,300.921332 160.092,301.164 C160.017333,301.985337 159.989333,302.647997 160.008,303.152 L160.036,305.14 C157.646655,305.046666 153.325365,305 147.072,305 L145.896,305 C145.074663,305 144.664,304.925334 144.664,304.776 C144.664,304.626666 144.794665,304.552 145.056,304.552 C145.989338,304.533333 146.586665,304.402668 146.848,304.16 C147.016001,304.010666 147.1,303.56267 147.1,302.816 L147.072,287.64 C147.072,287.00533 147.016001,286.613334 146.904,286.464 C146.679999,286.183999 146.334669,286.053333 145.868,286.072 L145.168,286.1 C144.962666,286.1 144.86,286.025334 144.86,285.876 C144.86,285.726666 144.990665,285.652 145.252,285.652 C145.401334,285.652 145.550666,285.661333 145.7,285.68 L152.812,285.68 C152.905334,285.661333 153.008,285.652 153.12,285.652 C153.306668,285.652 153.4,285.726666 153.4,285.876 C153.4,286.044001 153.157336,286.128 152.672,286.128 C151.98133,286.128 151.575334,286.211999 151.454,286.38 C151.332666,286.548001 151.272,287.285327 151.272,288.592 L151.272,295.256 C151.272,296.618673 151.309333,299.670643 151.384,304.412 C151.738669,304.430667 152.139998,304.44 152.588,304.44 C154.54801,304.44 155.90133,304.365334 156.648,304.216 C157.824006,303.973332 158.626665,303.376005 159.056,302.424 C159.280001,301.938664 159.485332,301.164005 159.672,300.1 C159.728,299.801332 159.812,299.652 159.924,299.652 C160.054667,299.652 160.12,299.857331 160.12,300.268 L160.12,300.268 Z M167.952,303.264 C167.952,303.84267 167.765335,304.318665 167.392,304.692 C167.018665,305.065335 166.54267,305.252 165.964,305.252 C165.385331,305.252 164.900002,305.060669 164.508,304.678 C164.115998,304.295331 163.92,303.824003 163.92,303.264 C163.92,302.68533 164.115998,302.200002 164.508,301.808 C164.900002,301.415998 165.385331,301.22 165.964,301.22 C166.505336,301.22 166.971998,301.415998 167.364,301.808 C167.756002,302.200002 167.952,302.68533 167.952,303.264 L167.952,303.264 Z" id="BRIDAL." fill="#919C8D" sketch:type="MSShapeGroup"></path>
            </g>
        </g>
    </g>
</svg>