<?xml version="1.0" encoding="UTF-8" standalone="no"?>
<svg width="198px" height="201px" viewBox="0 0 198 201" version="1.1" xmlns="http://www.w3.org/2000/svg" xmlns:xlink="http://www.w3.org/1999/xlink" xmlns:sketch="http://www.bohemiancoding.com/sketch/ns">
    <!-- Generator: Sketch 3.3.3 (12081) - http://www.bohemiancoding.com/sketch -->
    <title>twitter</title>
    <desc>Created with Sketch.</desc>
    <defs></defs>
    <g id="Assets" stroke="none" stroke-width="1" fill="none" fill-rule="evenodd" sketch:type="MSPage">
        <path d="M99.4745896,0 C45.0561361,0 0.941176471,45.0054215 0.941176471,100.504081 C0.941176471,156.010904 45.0561361,201 99.4745896,201 C153.893043,201 198,156.010904 198,100.504081 C198,45.0054215 153.889042,0 99.4745896,0 L99.4745896,0 Z M149.10742,80.2400097 C149.159438,81.3256579 149.179445,82.4153874 149.179445,83.5173611 C149.179445,116.988791 124.202975,155.578277 78.5314877,155.578277 C64.5107332,155.578277 51.4543057,151.386696 40.4665797,144.20346 C42.4112392,144.436099 44.3839081,144.554459 46.3885879,144.554459 C58.0245337,144.554459 68.7321647,140.505726 77.2270454,133.714303 C66.3633614,133.506153 57.1962528,126.180068 54.0351809,116.119457 C55.5476938,116.421479 57.1042216,116.57249 58.7047644,116.57249 C60.9695324,116.57249 63.1622759,116.270468 65.2469829,115.68683 C53.8831293,113.360441 45.324227,103.116167 45.324227,90.8556896 C45.324227,90.7454922 45.324227,90.6393762 45.3282283,90.5291788 C48.6733627,92.4270224 52.5026612,93.5657286 56.5760425,93.7004142 C49.9097819,89.1496711 45.5282962,81.4072856 45.5282962,72.6159844 C45.5282962,67.9754508 46.7527114,63.620614 48.8894359,59.8820663 C61.1375893,75.2035819 79.4357943,85.2886818 100.074793,86.3416788 C99.6506493,84.4928119 99.4305747,82.5541545 99.4305747,80.5706019 C99.4305747,66.5877802 110.546344,55.245614 124.262995,55.245614 C131.405417,55.245614 137.855605,58.3229776 142.385141,63.2410453 C148.043059,62.1105019 153.356861,59.996345 158.154488,57.094481 C156.293857,63.0124878 152.360523,67.9754508 147.230784,71.1058723 C152.26049,70.4936647 157.046112,69.1304825 161.495621,67.1183601 C158.174495,72.207846 153.961066,76.6687987 149.10742,80.2400097 L149.10742,80.2400097 Z" id="twitter" fill="#FFFFFF" sketch:type="MSShapeGroup"></path>
    </g>
</svg>